<svg id="Layer_1" data-name="Layer 1" xmlns="http://www.w3.org/2000/svg" viewBox="0 0 217.3 193.43"><defs><style>.cls-1{fill:#fff;}</style></defs><title>weather icons</title><g id="Group_65" data-name="Group 65"><path id="Path_14" data-name="Path 14" class="cls-1" d="M30.06,88.11l75.41.76c-1.24,20.86-19.11,36.88-39.31,36C46.84,124.06,30.82,108,30.06,88.11Z"/><path id="Path_15" data-name="Path 15" class="cls-1" d="M30.06,52.18l75.41.76c-1.24,20.85-19.11,36.88-39.31,36C46.84,88.13,30.82,72.11,30.06,52.18Z"/><path id="Path_16" data-name="Path 16" class="cls-1" d="M104.75,91.46l75.41.53c-.87-20.88-18.47-37.21-38.69-36.69C122.14,55.79,105.85,71.54,104.75,91.46Z"/><path id="Path_17" data-name="Path 17" class="cls-1" d="M104.75,125.83l75.41.53c-.87-20.89-18.47-37.21-38.69-36.69C122.14,90.16,105.85,105.9,104.75,125.83Z"/></g></svg>